<svg xmlns="http://www.w3.org/2000/svg" width="15" height="13.875" viewBox="0 0 15 13.875">
  <defs>
    <style>
      .cls-1 {
        fill: #cdcdcd;
        fill-rule: evenodd;
      }
    </style>
  </defs>
  <path id="icon-heart.svg" class="cls-1" d="M125.663,610.682l-6.188,6.192-6.189-6.192a4.491,4.491,0,0,1,6.189-6.507A4.491,4.491,0,0,1,125.663,610.682Zm-1.389-4.952a2.458,2.458,0,0,0-1.747-.724,2.513,2.513,0,0,0-1.686.65l-1.341,1.338-1.341-1.338a2.513,2.513,0,0,0-1.686-.65,2.495,2.495,0,0,0-1.754,4.253l4.781,4.735,4.774-4.728A2.5,2.5,0,0,0,124.274,605.73Z" transform="translate(-111.969 -603)"/>
</svg>
