<svg xmlns="http://www.w3.org/2000/svg" width="3.688" height="3.76" viewBox="0 0 3.688 3.76">
  <defs>
    <style>
      .cls-1 {
        fill: #656565;
        fill-rule: evenodd;
      }
    </style>
  </defs>
  <path id="icon-midel-point.svg" class="cls-1" d="M155.691,2148.18a1.8,1.8,0,0,0-.546,1.32,1.871,1.871,0,0,0,1.862,1.86,1.759,1.759,0,0,0,1.3-.55,1.779,1.779,0,0,0,.546-1.31,1.8,1.8,0,0,0-.546-1.32,1.9,1.9,0,0,0-.588-0.4,1.761,1.761,0,0,0-.728-0.14A1.787,1.787,0,0,0,155.691,2148.18Z" transform="translate(-155.156 -2147.62)"/>
</svg>
