<svg xmlns="http://www.w3.org/2000/svg" width="11" height="8" viewBox="0 0 11 8">
  <defs>
    <style>
      .cls-1 {
        fill: #fff;
        fill-rule: evenodd;
      }
    </style>
  </defs>
  <path id="icon-footer-arrow-right" class="cls-1" d="M11,3.984c0,0.006,0,.01,0,0.016a0.978,0.978,0,0,1-.117.447c-0.007.012-.015,0.021-0.022,0.033a0.981,0.981,0,0,1-.292.321h0L7.687,7.694A1,1,0,0,1,6.273,6.278L7.544,5H1A1,1,0,0,1,1,3H7.62L6.281,1.69A1,1,0,0,1,7.7.274L10.711,3.24A1,1,0,0,1,11,3.949C11,3.961,11,3.972,11,3.984Z"/>
  <path id="icon-footer-arrow-right_copy" data-name="icon-footer-arrow-right copy" class="cls-1" d="M11,4a1,1,0,0,1-1,1H1A1,1,0,0,1,1,3h9A1,1,0,0,1,11,4Zm0-.051a1,1,0,0,0-.293-0.708L7.7,0.274A1,1,0,0,0,6.281,1.69L8.59,3.949,6.273,6.278A1,1,0,0,0,7.687,7.694l3.024-3.037A1,1,0,0,0,11,3.949ZM11,4a1,1,0,0,1-1,1H1A1,1,0,0,1,1,3h9A1,1,0,0,1,11,4Z"/>
  <path id="icon-footer-arrow-right_copy_2" data-name="icon-footer-arrow-right copy 2" class="cls-1" d="M11,4a1,1,0,0,1-1,1H1A1,1,0,0,1,1,3h9A1,1,0,0,1,11,4Zm0-.051a1,1,0,0,0-.293-0.708L7.7,0.274A1,1,0,0,0,6.281,1.69L8.59,3.949,6.273,6.278A1,1,0,0,0,7.687,7.694l3.024-3.037A1,1,0,0,0,11,3.949ZM11,4a1,1,0,0,1-1,1H1A1,1,0,0,1,1,3h9A1,1,0,0,1,11,4Z"/>
  <path id="icon-footer-arrow-right_copy_3" data-name="icon-footer-arrow-right copy 3" class="cls-1" d="M11,4a1,1,0,0,1-1,1H1A1,1,0,0,1,1,3h9A1,1,0,0,1,11,4Zm0-.051a1,1,0,0,0-.293-0.708L7.7,0.274A1,1,0,0,0,6.281,1.69L8.59,3.949,6.273,6.278A1,1,0,0,0,7.687,7.694l3.024-3.037A1,1,0,0,0,11,3.949ZM11,4a1,1,0,0,1-1,1H1A1,1,0,0,1,1,3h9A1,1,0,0,1,11,4Z"/>
</svg>
