<svg xmlns="http://www.w3.org/2000/svg" width="29" height="15.031" viewBox="0 0 29 15.031">
  <defs>
    <style>
      .cls-1 {
        fill: #ffc12b;
        fill-rule: evenodd;
      }
    </style>
  </defs>
  <path id="icon-hit.svg" class="cls-1" d="M298.194,1006.87l-5.5,5.35a2.827,2.827,0,0,1-2.748.66,4.2,4.2,0,0,1-.946.12H274a4,4,0,0,1-4-4v-7a4,4,0,0,1,4-4h15a3.979,3.979,0,0,1,.9.11,2.808,2.808,0,0,1,2.8.643l5.5,5.347a2.614,2.614,0,0,1,.806,1.89C299,1006.67,298.731,1006.35,298.194,1006.87Z" transform="translate(-270 -997.969)"/>
</svg>
