<?xml version="1.0" ?><!DOCTYPE svg  PUBLIC '-//W3C//DTD SVG 1.1//EN'  'http://www.w3.org/Graphics/SVG/1.1/DTD/svg11.dtd'><svg enable-background="new 0 0 500 500" height="500px" id="Layer_1" version="1.1" viewBox="0 0 500 500" width="500px" xml:space="preserve" xmlns="http://www.w3.org/2000/svg" xmlns:xlink="http://www.w3.org/1999/xlink"><g><path d="M354.188,312.509l-60.577-65.686l60.632-60.735c1.254-1.256,3.399-0.368,3.399,1.406V311.16    C357.642,312.972,355.417,313.842,354.188,312.509z M261.667,278.823c-3.477,3.483-8.197,5.441-13.119,5.441h-0.157    c-5.008,0-9.812-1.987-13.357-5.526l-17.957-17.926l-61.616,62.724c-1.237,1.259-0.345,3.386,1.42,3.386h187.099    c1.735,0,2.639-2.065,1.463-3.34l-61.684-66.888L261.667,278.823z M248.392,270.329h0.004c1.33,0,2.58-0.519,3.52-1.46    l91.716-91.873c1.252-1.255,0.364-3.397-1.409-3.397h-187.97c-1.774,0-2.662,2.146-1.406,3.399l92.031,91.877    C245.816,269.814,247.064,270.329,248.392,270.329z M142.491,191.15v120.836c0,1.782,2.162,2.666,3.411,1.395l61.314-62.416    l-61.327-61.224C144.634,188.489,142.491,189.378,142.491,191.15z"/></g></svg>