<svg xmlns="http://www.w3.org/2000/svg" width="16" height="16.03" viewBox="0 0 16 16.03">
  <defs>
    <style>
      .cls-1 {
        fill: #656565;
        fill-rule: evenodd;
      }
    </style>
  </defs>
  <path id="icon-instagram.svg" class="cls-1" d="M828.006,2217.99a0.6,0.6,0,0,1-.448.19h-11.14a0.593,0.593,0,0,1-.454-0.19,0.608,0.608,0,0,1-.182-0.45v-6.75h1.469a4.472,4.472,0,0,0-.208,1.36,4.594,4.594,0,0,0,1.459,3.42,4.872,4.872,0,0,0,3.512,1.41,5.018,5.018,0,0,0,2.5-.65,4.837,4.837,0,0,0,1.813-1.75,4.628,4.628,0,0,0,.667-2.43,4.472,4.472,0,0,0-.208-1.36h1.407v6.75A0.6,0.6,0,0,1,828.006,2217.99Zm-5.992-2.89a3.134,3.134,0,0,1-2.267-.91,3.049,3.049,0,0,1,0-4.41,3.291,3.291,0,0,1,4.544,0,3.049,3.049,0,0,1,0,4.41,3.148,3.148,0,0,1-2.277.91h0Zm5.971-6.35a0.723,0.723,0,0,1-.51.2h-1.814a0.723,0.723,0,0,1-.51-0.2,0.7,0.7,0,0,1-.209-0.52v-1.72a0.715,0.715,0,0,1,.719-0.71h1.814a0.715,0.715,0,0,1,.719.71v1.72A0.7,0.7,0,0,1,827.985,2208.75Zm1.418-4.13a1.993,1.993,0,0,0-1.449-.61h-11.9a1.993,1.993,0,0,0-1.449.61,1.962,1.962,0,0,0-.6,1.45v11.9a2.055,2.055,0,0,0,2.053,2.05h11.9a2.055,2.055,0,0,0,2.053-2.05v-11.9A1.966,1.966,0,0,0,829.4,2204.62Z" transform="translate(-814 -2204)"/>
</svg>
