<svg xmlns="http://www.w3.org/2000/svg" width="13" height="16" viewBox="0 0 13 16">
  <defs>
    <style>
      .cls-1 {
        fill: #fff;
        fill-rule: evenodd;
      }
    </style>
  </defs>
  <path id="icon-map.svg" class="cls-1" d="M573,1707.62a6.5,6.5,0,1,0-13,0c0,0.12.011,0.23,0.017,0.35a1.447,1.447,0,0,0-.017.16c0,4.08,6,8.7,6,8.7a0.828,0.828,0,0,0,1,0c0.5-.38,6-4.62,6-8.7a1.45,1.45,0,0,0-.018-0.16C572.988,1707.85,573,1707.74,573,1707.62Zm-6.5,2.55a2.551,2.551,0,1,1,2.5-2.55A2.524,2.524,0,0,1,566.5,1710.17Z" transform="translate(-560 -1701)"/>
</svg>
