<svg xmlns="http://www.w3.org/2000/svg" width="6" height="4" viewBox="0 0 6 4">
  <defs>
    <style>
      .cls-1 {
        fill: #1f4ba5;
        fill-rule: evenodd;
      }
    </style>
  </defs>
  <path id="icon-arrow-down.svg" class="cls-1" d="M278.169,40.117h0A0.676,0.676,0,0,1,278,39.666,0.655,0.655,0,0,1,278.643,39a0.628,0.628,0,0,1,.472.218l0,0L281,41.346l1.883-2.131,0,0A0.628,0.628,0,0,1,283.357,39a0.655,0.655,0,0,1,.643.667,0.676,0.676,0,0,1-.171.449h0l-2.357,2.667a0.628,0.628,0,0,1-.948,0Z" transform="translate(-278 -39)"/>
</svg>
