<svg xmlns="http://www.w3.org/2000/svg" width="34" height="20" viewBox="0 0 34 20">
  <defs>
    <style>
      .cls-1 {
        fill: #656565;
        fill-rule: evenodd;
      }
    </style>
  </defs>
  <path id="icon-mastercard.svg" class="cls-1" d="M851.944,2275.5h0.08a0.046,0.046,0,0,1,0,.07h-0.08v-0.07h0Zm0,0.12h0.05l0.044,0.11h0.075l-0.053-.12a0.076,0.076,0,0,0,.051-0.07,0.112,0.112,0,0,0-.037-0.08,0.185,0.185,0,0,0-.075-0.01h-0.122v0.28h0.067v-0.11h0Zm0.046,0.22a0.245,0.245,0,1,0-.251-0.25,0.25,0.25,0,0,0,.251.25h0Zm-0.33-.25a0.329,0.329,0,0,1,.658,0,0.329,0.329,0,1,1-.658,0h0Zm0.284-3.4h0.035a0.073,0.073,0,0,1,.045.01c0.009,0,.016.01,0.016,0.03a0.045,0.045,0,0,1-.016.03h-0.08v-0.07h0Zm0,0.12h0.05l0.044,0.11h0.075l-0.053-.12a0.078,0.078,0,0,0,.013-0.14,0.1,0.1,0,0,0-.074-0.02h-0.122v0.28h0.067v-0.11h0Zm-0.206-.03a0.25,0.25,0,1,1,.251.25,0.248,0.248,0,0,1-.251-0.25h0Zm0.251,0.33a0.331,0.331,0,0,0,.329-0.33,0.329,0.329,0,0,0-.658,0,0.33,0.33,0,0,0,.329.33h0Zm-14.778-4.09c-0.131,1.21-.364,2.44-0.547,3.65l-0.048.26h1.05c0.375-2.39.466-2.86,1.053-2.8a3.945,3.945,0,0,1,.4-1.14,0.965,0.965,0,0,0-1,.62,3.581,3.581,0,0,0,.061-0.59h-0.963Zm9.167,0c-0.131,1.21-.364,2.44-0.547,3.65l-0.048.26h1.048c0.376-2.39.467-2.86,1.055-2.8a3.853,3.853,0,0,1,.4-1.14,0.969,0.969,0,0,0-1.007.62,3.593,3.593,0,0,0,.064-0.59h-0.964Zm2.7,2.24a1.113,1.113,0,0,1,.813-1.32c0.36,0,.556.27,0.556,0.77a1.114,1.114,0,0,1-.832,1.32c-0.358,0-.537-0.26-0.537-0.77h0Zm2.884-3.14h-1.036l-0.232,1.39a1.186,1.186,0,0,0-1-.53c-0.925,0-1.707,1.09-1.707,2.4a1.392,1.392,0,0,0,1.266,1.62,1.249,1.249,0,0,0,.967-0.43l-0.049.36h0.992l0.8-4.81h0Zm-23.385,2.13a1.15,1.15,0,0,0,.8,1.1c0.424,0.19.49,0.25,0.49,0.43,0,0.24-.188.35-0.6,0.35a2.893,2.893,0,0,1-.94-0.15s-0.137.86-.144,0.9a5.06,5.06,0,0,0,1.091.12c1.107,0,1.618-.41,1.618-1.31a1.071,1.071,0,0,0-.74-1.09c-0.439-.2-0.49-0.24-0.49-0.43,0-.21.175-0.32,0.514-0.32a7.542,7.542,0,0,1,.753.06l0.15-.91a7.64,7.64,0,0,0-.924-0.07,1.3,1.3,0,0,0-1.575,1.32h0Zm6.97,0.27a0.532,0.532,0,0,0-.485-0.7,0.731,0.731,0,0,0-.667.7h1.152Zm0.761,1.35a2.516,2.516,0,0,1-1.085.24c-0.607,0-.977-0.23-0.906-0.8h2.076a4.233,4.233,0,0,0,.128-0.96,1.319,1.319,0,0,0-1.409-1.42,2.053,2.053,0,0,0-1.824,2.32,1.572,1.572,0,0,0,1.776,1.75,3.562,3.562,0,0,0,1.069-.16l0.175-.97h0Zm-3.381.14a1.066,1.066,0,0,1-.283.03c-0.249,0-.359-0.09-0.359-0.29,0-.12.175-1.05,0.3-1.79h0.535l0.143-.94h-0.535l0.121-.6H831.8s-0.394,2.31-.454,2.68a8.875,8.875,0,0,0-.145,1.04,0.759,0.759,0,0,0,.829.86,2.4,2.4,0,0,0,.753-0.13l0.14-.86h0Zm12.641-1.16a4.777,4.777,0,0,0,.086-0.77,1.142,1.142,0,0,0-1.377-1.15,4.277,4.277,0,0,0-1.255.21s-0.135.81-.145,0.88a3.569,3.569,0,0,1,1.11-.18c0.49,0,.672.1,0.672,0.36a0.979,0.979,0,0,1-.04.25,3.535,3.535,0,0,0-.428-0.03c-1.164,0-1.841.56-1.841,1.51a0.971,0.971,0,0,0,.957,1.07,1.328,1.328,0,0,0,1.1-.47l-0.021.4h0.869c0.028-.29.223-1.51,0.313-2.08h0Zm-1.075.34c-0.11-.01-0.158-0.02-0.234-0.02-0.594,0-.895.2-0.895,0.6a0.365,0.365,0,0,0,.376.4,0.87,0.87,0,0,0,.753-0.98h0Zm-3.022-3.19c-1.39,0-2.362,1.2-2.362,2.92a1.827,1.827,0,0,0,1.832,2.08,3.449,3.449,0,0,0,.927-0.14l0.184-1.1a2.051,2.051,0,0,1-.891.25,1,1,0,0,1-.978-1.17,1.557,1.557,0,0,1,1.331-1.81,2.1,2.1,0,0,1,.938.26l0.171-1.04a3.664,3.664,0,0,0-1.152-.25h0Zm-13.386,2.85a5,5,0,0,0,.085-0.77,1.142,1.142,0,0,0-1.377-1.15,4.287,4.287,0,0,0-1.255.21s-0.134.81-.145,0.88a3.567,3.567,0,0,1,1.109-.18c0.491,0,.673.1,0.673,0.36a0.935,0.935,0,0,1-.04.25,3.548,3.548,0,0,0-.428-0.03c-1.163,0-1.841.56-1.841,1.51a0.972,0.972,0,0,0,.958,1.07,1.326,1.326,0,0,0,1.1-.47l-0.02.4h0.869c0.027-.29.223-1.51,0.313-2.08h0Zm-1.076.34c-0.11-.01-0.159-0.02-0.234-0.02-0.594,0-.895.2-0.895,0.6a0.365,0.365,0,0,0,.376.4,0.87,0.87,0,0,0,.753-0.98h0Zm-1.95-3.07H823.43l-1.018,2.98-0.042-2.98h-1.508l-0.819,4.81h0.981l0.632-3.68,0.088,3.68h0.714l1.342-3.7-0.6,3.7h1.05l0.81-4.81h0Zm27.936,2.38a10.079,10.079,0,0,1-10.169,9.99,10.219,10.219,0,0,1-6.127-2.02h0a10.845,10.845,0,0,0,3.083-4.85h-0.946a10.024,10.024,0,0,1-2.836,4.29,10.024,10.024,0,0,1-2.836-4.29h-0.946a10.852,10.852,0,0,0,3.082,4.85h0a10.211,10.211,0,0,1-6.126,2.02,9.992,9.992,0,1,1,0-19.98,10.27,10.27,0,0,1,6.126,2.01h0a10.881,10.881,0,0,0-3.185,5.22h0.936a9.98,9.98,0,0,1,2.949-4.65,10,10,0,0,1,2.95,4.65h0.936a10.892,10.892,0,0,0-3.187-5.22h0a10.277,10.277,0,0,1,6.127-2.01,10.079,10.079,0,0,1,10.169,9.99h0Z" transform="translate(-819 -2260)"/>
</svg>
