<svg xmlns="http://www.w3.org/2000/svg" width="14" height="16" viewBox="0 0 14 16">
  <defs>
    <style>
      .cls-1 {
        fill: #fff;
        fill-rule: evenodd;
      }
    </style>
  </defs>
  <path id="icon-storage.svg" class="cls-1" d="M814.544,1649.82l0.01,0.01-6,4-0.01-.01a0.914,0.914,0,0,1-1.089,0l-0.01.01-6-4,0.01-.01A0.984,0.984,0,0,1,801,1649a1,1,0,0,1,1-1,1.021,1.021,0,0,1,.544.18l0.01-.01L808,1651.8l5.445-3.63,0.01,0.01A1.021,1.021,0,0,1,814,1648a1,1,0,0,1,1,1A0.985,0.985,0,0,1,814.544,1649.82Zm0-3,0.01,0.01-6,4-0.01-.01a0.914,0.914,0,0,1-1.089,0l-0.01.01-6-4,0.01-.01a0.966,0.966,0,0,1,0-1.64l-0.01-.01,6-4,0.01,0.01a0.914,0.914,0,0,1,1.089,0l0.01-.01,6,4-0.01.01A0.965,0.965,0,0,1,814.544,1646.82ZM808,1643.2l-4.2,2.8,4.2,2.8,2.71-1.81,1.487-.99Zm-6,7.8a1.021,1.021,0,0,1,.544.18l0.01-.01L808,1654.8l5.445-3.63,0.01,0.01A1.021,1.021,0,0,1,814,1651a1,1,0,0,1,1,1,0.985,0.985,0,0,1-.456.82l0.01,0.01-6,4-0.01-.01a0.914,0.914,0,0,1-1.089,0l-0.01.01-6-4,0.01-.01A0.984,0.984,0,0,1,801,1652,1,1,0,0,1,802,1651Z" transform="translate(-801 -1641)"/>
</svg>
