<svg xmlns="http://www.w3.org/2000/svg" width="15.969" height="13" viewBox="0 0 15.969 13">
  <defs>
    <style>
      .cls-1 {
        fill: #656565;
        fill-rule: evenodd;
      }
    </style>
  </defs>
  <path id="icon-twitter.svg" class="cls-1" d="M776.12,2207.04a3.194,3.194,0,0,0,1.44-1.81,6.273,6.273,0,0,1-2.079.79,3.28,3.28,0,0,0-5.67,2.25,3.614,3.614,0,0,0,.081.75,8.95,8.95,0,0,1-3.769-1.01,9.32,9.32,0,0,1-2.987-2.42,3.3,3.3,0,0,0-.051,3.22,3.31,3.31,0,0,0,1.065,1.17,3.217,3.217,0,0,1-1.481-.42v0.04a3.167,3.167,0,0,0,.746,2.09,3.251,3.251,0,0,0,1.882,1.14,3.6,3.6,0,0,1-.863.11,4.714,4.714,0,0,1-.618-0.05,3.264,3.264,0,0,0,1.156,1.62,3.184,3.184,0,0,0,1.907.65,6.385,6.385,0,0,1-4.068,1.41c-0.29,0-.554-0.02-0.791-0.04a9.1,9.1,0,0,0,5.032,1.47,9.54,9.54,0,0,0,3.276-.55,8.359,8.359,0,0,0,2.617-1.49,9.855,9.855,0,0,0,1.872-2.14,9.584,9.584,0,0,0,1.171-2.53,9.258,9.258,0,0,0,.386-2.63c0-.19,0-0.34-0.011-0.43a6.816,6.816,0,0,0,1.644-1.7,6.63,6.63,0,0,1-1.887.51h0Z" transform="translate(-762.031 -2205)"/>
</svg>
