<svg xmlns="http://www.w3.org/2000/svg" width="57.281" height="15.25" viewBox="0 0 57.281 15.25">
  <defs>
    <style>
      .cls-1 {
        fill: #656565;
        fill-rule: evenodd;
      }
    </style>
  </defs>
  <path id="icon-paypal.svg" class="cls-1" d="M895.75,2266.94a0.386,0.386,0,0,1,.349-0.32h2.139a0.631,0.631,0,0,1,.591.46c0.415,1.39.832,2.77,1.247,4.16,0.981-1.44,1.963-2.89,2.943-4.33a0.656,0.656,0,0,1,.576-0.29h2.089a0.4,0.4,0,0,1,.235.08,0.374,0.374,0,0,1,.085.5q-3.568,5.16-7.141,10.3a0.519,0.519,0,0,1-.349.23c0.018,0.01.054,0.02,0.072,0.03-0.832,0-1.664.01-2.5,0a0.686,0.686,0,0,1-.18-0.15,0.381,0.381,0,0,1,0-.45q0.936-1.32,1.872-2.64c0.115-.15.222-0.32,0.341-0.47-0.346-1.04-.709-2.08-1.06-3.12-0.418-1.23-.836-2.45-1.253-3.68a0.584,0.584,0,0,1-.06-0.31h0Zm-6.576,1.78a2.4,2.4,0,0,0-1.325.68,2.436,2.436,0,0,0-.667,1.33,1.91,1.91,0,0,0,.226,1.36,1.6,1.6,0,0,0,.986.66,2.58,2.58,0,0,0,1.786-.26,2.393,2.393,0,0,0,1.126-2.62,1.564,1.564,0,0,0-.738-0.94,2.171,2.171,0,0,0-1.394-.21h0Zm-1.523-2.08a5.1,5.1,0,0,1,2.2-.17,2.912,2.912,0,0,1,1.481.56,2.615,2.615,0,0,1,.4.49c0.031-.2.06-0.39,0.093-0.59a0.381,0.381,0,0,1,.367-0.31h2.141a0.384,0.384,0,0,1,.35.25,0.626,0.626,0,0,1,0,.31q-0.567,3.57-1.132,7.16a0.616,0.616,0,0,1-.385.49,0.86,0.86,0,0,1-.389.05h-1.793a0.373,0.373,0,0,1-.346-0.4c0.023-.2.071-0.4,0.085-0.6a4.1,4.1,0,0,1-2.783,1.19,4.36,4.36,0,0,1-1.481-.18,2.905,2.905,0,0,1-1.153-.68,3.3,3.3,0,0,1-.778-1.16,4.3,4.3,0,0,1-.272-1.98,5.326,5.326,0,0,1,1.164-2.89,4.8,4.8,0,0,1,2.236-1.54h0Zm-8.931-1.46a0.7,0.7,0,0,0-.062.25c-0.149.95-.3,1.89-0.45,2.84,0.491,0,.983.02,1.473-0.02a2.194,2.194,0,0,0,1.242-.4,1.7,1.7,0,0,0,.574-1.05,2.113,2.113,0,0,0-.01-1.03,0.988,0.988,0,0,0-.46-0.55,2.009,2.009,0,0,0-.834-0.21c-0.38-.03-0.762-0.02-1.143-0.03a0.38,0.38,0,0,0-.33.2h0Zm-2.205-2.67c1.5-.02,3.009-0.01,4.513-0.01a6.319,6.319,0,0,1,1.62.2,3.317,3.317,0,0,1,1.324.66,2.509,2.509,0,0,1,.8,1.24,4.5,4.5,0,0,1,.052,1.97,5.428,5.428,0,0,1-1.055,2.57,3.877,3.877,0,0,1-1.261,1.03,5.743,5.743,0,0,1-2.375.58c-0.6.01-1.194-.01-1.792,0a0.657,0.657,0,0,0-.512.29,0.993,0.993,0,0,0-.121.43q-0.23,1.455-.459,2.91a0.621,0.621,0,0,1-.6.5h-2.137a0.393,0.393,0,0,1-.358-0.25,1.124,1.124,0,0,1,.029-0.47q0.878-5.55,1.753-11.1a0.614,0.614,0,0,1,.582-0.55h0Zm44.437,6.21a2.373,2.373,0,0,0-1.336.69,2.447,2.447,0,0,0-.664,1.39,1.836,1.836,0,0,0,.266,1.33,1.586,1.586,0,0,0,1.086.64,2.493,2.493,0,0,0,1.69-.3,2.364,2.364,0,0,0,.926-1.02,2.337,2.337,0,0,0,.183-1.51,1.55,1.55,0,0,0-.674-0.96,2.171,2.171,0,0,0-1.477-.26h0Zm-1.124-2.19a5.284,5.284,0,0,1,1.86-.05,2.848,2.848,0,0,1,1.4.54,2.167,2.167,0,0,1,.419.5c0.03-.2.059-0.39,0.092-0.59a0.38,0.38,0,0,1,.368-0.31h2.141a0.379,0.379,0,0,1,.351.26,0.682,0.682,0,0,1-.008.32q-0.554,3.48-1.1,6.98a1.307,1.307,0,0,1-.066.31,0.629,0.629,0,0,1-.573.39h-1.926a0.38,0.38,0,0,1-.367-0.3,0.532,0.532,0,0,1,.01-0.23c0.027-.16.051-0.32,0.081-0.49a3.674,3.674,0,0,1-.981.73,4.14,4.14,0,0,1-1.754.48,4.7,4.7,0,0,1-1.54-.18,2.948,2.948,0,0,1-1.168-.69,3.445,3.445,0,0,1-.946-1.73,4.782,4.782,0,0,1,.04-2.19,5.108,5.108,0,0,1,2.081-3.06,4.83,4.83,0,0,1,1.586-.69h0Zm9.135-4.03h2.089a0.38,0.38,0,0,1,.363.45q-0.88,5.58-1.761,11.15a1.46,1.46,0,0,1-.108.46,0.619,0.619,0,0,1-.532.32h-1.872a0.377,0.377,0,0,1-.355-0.43q0.912-5.8,1.825-11.6a0.387,0.387,0,0,1,.351-0.35h0Zm-18.487,2.73a1.567,1.567,0,0,0-.042.23c-0.148.94-.3,1.87-0.445,2.81a12.938,12.938,0,0,0,1.868-.06,1.709,1.709,0,0,0,1.055-.56,2.315,2.315,0,0,0,.422-1.35,1.2,1.2,0,0,0-.339-0.95,1.481,1.481,0,0,0-.807-0.32,12.356,12.356,0,0,0-1.361-.05,0.386,0.386,0,0,0-.351.25h0Zm-2.276-2.71a5.914,5.914,0,0,1,.6-0.02h3.4a11.255,11.255,0,0,1,1.536.06,4.074,4.074,0,0,1,1.962.75,2.508,2.508,0,0,1,.763,1.03,4.019,4.019,0,0,1,.177,1.99,6.314,6.314,0,0,1-.669,2.18,3.951,3.951,0,0,1-1.4,1.5,5.28,5.28,0,0,1-2.258.71,14.132,14.132,0,0,1-1.455.03c-0.255,0-.51-0.01-0.764.01a0.618,0.618,0,0,0-.572.5c-0.165,1.03-.327,2.07-0.491,3.1a0.909,0.909,0,0,1-.066.28,0.436,0.436,0,0,1-.377.24h-2.164a0.651,0.651,0,0,1-.31-0.04,0.4,0.4,0,0,1-.194-0.42q0.882-5.565,1.758-11.13a2.1,2.1,0,0,1,.082-0.4,0.616,0.616,0,0,1,.443-0.37h0Z" transform="translate(-874.125 -2262.5)"/>
</svg>
