<svg xmlns="http://www.w3.org/2000/svg" width="13" height="17.03" viewBox="0 0 13 17.03">
  <defs>
    <style>
      .cls-1 {
        fill: #656565;
        fill-rule: evenodd;
      }
    </style>
  </defs>
  <path id="icon-pinterest-p.svg" class="cls-1" d="M866.112,2209.19a6.489,6.489,0,0,0,.33,1.11,3.029,3.029,0,0,0,.62.96,2.164,2.164,0,0,0,.921.58c0.1,0.02.159,0.03,0.172,0.03a0.535,0.535,0,0,0,.377-0.46,2.565,2.565,0,0,0,.152-0.75,0.793,0.793,0,0,0-.127-0.31c-0.085-.15-0.176-0.3-0.275-0.47a2.909,2.909,0,0,1-.274-0.66,2.978,2.978,0,0,1-.127-0.87,4.478,4.478,0,0,1,1.362-3.36,4.654,4.654,0,0,1,3.4-1.33,4.207,4.207,0,0,1,2.9.99,3.5,3.5,0,0,1,1.113,2.76,8.143,8.143,0,0,1-.066,1.01,11.117,11.117,0,0,1-.2,1.14,5.47,5.47,0,0,1-.386,1.13,5.561,5.561,0,0,1-.569.97,2.29,2.29,0,0,1-.8.7,2.168,2.168,0,0,1-1.037.25,1.582,1.582,0,0,1-1.109-.42,1.393,1.393,0,0,1-.457-1.07,6.482,6.482,0,0,1,.447-1.91,6.6,6.6,0,0,0,.448-1.96,1.6,1.6,0,0,0-.346-1.05,1.206,1.206,0,0,0-.966-0.41,1.586,1.586,0,0,0-1.342.75,2.694,2.694,0,0,0-.529,1.59,3.938,3.938,0,0,0,.326,1.73c-0.048.21-.224,0.9-0.529,2.08s-0.53,2.16-.676,2.94a11.635,11.635,0,0,0-.219,2.11c0,0.22.051,0.86,0.153,1.93l0.091,0.1,0.143-.05c0.25-.34.461-0.64,0.63-0.89a6.579,6.579,0,0,0,.468-0.79c0.142-.28.25-0.49,0.325-0.64a5.069,5.069,0,0,0,.264-0.72c0.1-.34.172-0.58,0.209-0.73s0.117-.47.239-0.97,0.217-.89.284-1.15a2.064,2.064,0,0,0,.976.9,3.252,3.252,0,0,0,1.373.32,4.667,4.667,0,0,0,1.922-.39,4.375,4.375,0,0,0,1.474-1.05,6.31,6.31,0,0,0,1.016-1.53,7.8,7.8,0,0,0,.61-1.82,9.4,9.4,0,0,0,.194-1.92,5.208,5.208,0,0,0-.865-2.94,5.757,5.757,0,0,0-2.246-1.98,6.73,6.73,0,0,0-2.99-.68,7.888,7.888,0,0,0-2.053.27,7,7,0,0,0-1.881.8,6.85,6.85,0,0,0-1.545,1.26,5.285,5.285,0,0,0-1.053,1.7,5.689,5.689,0,0,0-.381,2.08A5.452,5.452,0,0,0,866.112,2209.19Z" transform="translate(-866 -2202)"/>
</svg>
