<svg xmlns="http://www.w3.org/2000/svg" xmlns:xlink="http://www.w3.org/1999/xlink" width="95.282" height="19.25" viewBox="0 0 95.282 19.25">
  <defs>
    <style>
      .cls-1 {
        fill: #d5d5d5;
        fill-rule: evenodd;
        opacity: 0.3;
        filter: url(#filter);
      }
    </style>
    <filter id="filter" x="72.906" y="2207" width="95.282" height="19.25" filterUnits="userSpaceOnUse">
      <feFlood result="flood" flood-color="#fff"/>
      <feComposite result="composite" operator="in" in2="SourceGraphic"/>
      <feBlend result="blend" in2="SourceGraphic"/>
    </filter>
  </defs>
  <path id="icon-footer-logo-aware.svg" class="cls-1" d="M73.728,2215.18a1.038,1.038,0,0,0,.264.78,0.79,0.79,0,0,0,.5.25,1.887,1.887,0,0,0,.432-0.05,10.784,10.784,0,0,1,3.192-.58,3.616,3.616,0,0,1,2.424.69,2.88,2.88,0,0,1,.792,2.29v0.19h-2.9a6.8,6.8,0,0,0-4.176,1.11,3.281,3.281,0,0,0-1.344,2.78,3.335,3.335,0,0,0,1.152,2.64,4.056,4.056,0,0,0,2.76.96,5.838,5.838,0,0,0,2.772-.58,6.905,6.905,0,0,0,1.74-1.24v0.62a1.058,1.058,0,0,0,.312.77,1.034,1.034,0,0,0,.768.31,1.075,1.075,0,0,0,.78-0.31,1.038,1.038,0,0,0,.324-0.77v-6.79a4.573,4.573,0,0,0-1.2-3.24,4.856,4.856,0,0,0-3.792-1.49,10.6,10.6,0,0,0-4.176.86A0.86,0.86,0,0,0,73.728,2215.18Zm2.328,5.76a6.592,6.592,0,0,1,2.664-.44h2.616v2.02a6.435,6.435,0,0,1-1.6,1.25,4.16,4.16,0,0,1-2.1.55q-2.544,0-2.544-1.92A1.481,1.481,0,0,1,76.056,2220.94Zm29.856,2.59-2.784-9.03a1.226,1.226,0,0,0-.444-0.62,1.236,1.236,0,0,0-1.464,0,1.22,1.22,0,0,0-.444.62l-2.784,9.03-2.808-9.24a0.942,0.942,0,0,0-1.032-.65,0.978,0.978,0,0,0-.72.31,0.912,0.912,0,0,0-.312.64,1.783,1.783,0,0,0,.072.54l3.408,9.98a1.563,1.563,0,0,0,.528.71,1.394,1.394,0,0,0,1.728,0,1.685,1.685,0,0,0,.552-0.73l2.544-7.95,2.544,7.95a1.675,1.675,0,0,0,.552.73,1.394,1.394,0,0,0,1.728,0,1.571,1.571,0,0,0,.528-0.71l3.408-9.98a1.783,1.783,0,0,0,.072-0.54,0.917,0.917,0,0,0-.312-0.64,0.979,0.979,0,0,0-.72-0.31,0.941,0.941,0,0,0-1.032.65Zm14.375-8.35a1.039,1.039,0,0,0,.264.78,0.791,0.791,0,0,0,.5.25,1.885,1.885,0,0,0,.432-0.05,10.784,10.784,0,0,1,3.192-.58,3.615,3.615,0,0,1,2.424.69,2.879,2.879,0,0,1,.792,2.29v0.19h-2.9a6.8,6.8,0,0,0-4.176,1.11,3.282,3.282,0,0,0-1.344,2.78,3.334,3.334,0,0,0,1.152,2.64,4.056,4.056,0,0,0,2.76.96,5.837,5.837,0,0,0,2.772-.58,6.9,6.9,0,0,0,1.74-1.24v0.62a1.058,1.058,0,0,0,.312.77,1.034,1.034,0,0,0,.768.31,1.074,1.074,0,0,0,.78-0.31,1.038,1.038,0,0,0,.324-0.77v-6.79a4.572,4.572,0,0,0-1.2-3.24,4.856,4.856,0,0,0-3.792-1.49,10.6,10.6,0,0,0-4.176.86A0.86,0.86,0,0,0,120.287,2215.18Zm2.328,5.76a6.594,6.594,0,0,1,2.664-.44H127.9v2.02a6.43,6.43,0,0,1-1.6,1.25,4.16,4.16,0,0,1-2.1.55q-2.544,0-2.544-1.92A1.482,1.482,0,0,1,122.615,2220.94Zm20.544-6.2a1.1,1.1,0,0,0-1.1-1.1,1.043,1.043,0,0,0-.768.32,1.1,1.1,0,0,0-.312.78v10.3a1.058,1.058,0,0,0,.312.77,1.034,1.034,0,0,0,.768.31,1.074,1.074,0,0,0,.78-0.31,1.038,1.038,0,0,0,.324-0.77v-7.3a5.111,5.111,0,0,1,1.572-1.52,4.01,4.01,0,0,1,2.148-.59H147a1.167,1.167,0,0,0,.792-0.27,0.968,0.968,0,0,0,.312-0.75,1.087,1.087,0,0,0-.3-0.78,1,1,0,0,0-.756-0.31h-0.12a4.72,4.72,0,0,0-3.768,2.26v-1.04Zm15.792,5.91h8.136a1.093,1.093,0,0,0,.8-0.31,1.08,1.08,0,0,0,.3-0.77,6.278,6.278,0,0,0-1.464-4.23,5.314,5.314,0,0,0-4.248-1.82,5.224,5.224,0,0,0-4.368,1.97,6.918,6.918,0,0,0-1.368,4.39,6.405,6.405,0,0,0,1.632,4.7,6.124,6.124,0,0,0,4.584,1.66,8.949,8.949,0,0,0,2.5-.31,6.674,6.674,0,0,0,.888-0.34c0.272-.13.58-0.28,0.924-0.47a0.936,0.936,0,0,0,.516-0.9,0.809,0.809,0,0,0-.288-0.6,0.905,0.905,0,0,0-.6-0.26,1.657,1.657,0,0,0-.744.22,6.968,6.968,0,0,1-3.1.62,3.755,3.755,0,0,1-4.1-3.55h0Zm5.832-4.47a3.658,3.658,0,0,1,1.248,2.69h-7.08a3.814,3.814,0,0,1,.408-1.61,3.283,3.283,0,0,1,3.12-1.89,3.455,3.455,0,0,1,2.3.81h0ZM102,2207a2,2,0,1,1-2,2A2,2,0,0,1,102,2207Z" transform="translate(-72.906 -2207)"/>
</svg>
