<svg xmlns="http://www.w3.org/2000/svg" width="29" height="15.03" viewBox="0 0 29 15.03">
  <defs>
    <style>
      .cls-1 {
        fill: #68bf7b;
        fill-rule: evenodd;
      }
    </style>
  </defs>
  <path id="icon-new.svg" class="cls-1" d="M514,1238h15a4,4,0,0,1,4,4v7a4,4,0,0,1-4,4H514a4,4,0,0,1-4-4v-7A4,4,0,0,1,514,1238Zm14,5.31v-2.67a2.683,2.683,0,0,1,1.7-2.47,2.824,2.824,0,0,1,3,.58l5.5,5.35a2.614,2.614,0,0,1,.806,1.89c0,0.68-.269.36-0.806,0.88l-5.5,5.35a2.824,2.824,0,0,1-3,.58,2.683,2.683,0,0,1-1.7-2.47v-2.67" transform="translate(-510 -1237.97)"/>
</svg>
