<svg xmlns="http://www.w3.org/2000/svg" width="41.813" height="13.53" viewBox="0 0 41.813 13.53">
  <defs>
    <style>
      .cls-1 {
        fill: #656565;
        fill-rule: evenodd;
      }
    </style>
  </defs>
  <path id="icon-visa.svg" class="cls-1" d="M767.675,2263.24l-3.314,8.95-0.355-1.82a8.223,8.223,0,0,0-4.415-4.47l2.757,10.44h3.583l5.331-13.1h-3.587Zm2.84,13.11,2.117-13.12h3.386l-2.118,13.12h-3.385Zm15.665-12.8a8.461,8.461,0,0,0-3.034-.55c-3.347,0-5.7,1.78-5.723,4.33-0.021,1.89,1.682,2.94,2.965,3.57,1.319,0.64,1.763,1.05,1.757,1.62-0.009.88-1.052,1.29-2.026,1.29a6.79,6.79,0,0,1-3.189-.69l-0.435-.21-0.474,2.94a10.417,10.417,0,0,0,3.772.7c3.557,0,5.869-1.76,5.9-4.49,0.011-1.49-.89-2.63-2.844-3.56-1.183-.61-1.909-1.01-1.9-1.63,0-.55.614-1.13,1.94-1.13a5.853,5.853,0,0,1,2.533.51l0.3,0.15,0.459-2.85h0Zm4.507,8.15c0.281-.76,1.349-3.67,1.349-3.67-0.02.03,0.278-.76,0.449-1.25l0.229,1.13s0.649,3.13.784,3.79h-2.811Zm4.177-8.46h-2.616a1.67,1.67,0,0,0-1.775,1.09l-5.028,12.03H789s0.58-1.62.711-1.98c0.388,0,3.842.01,4.336,0.01,0.1,0.46.412,1.97,0.412,1.97H797.6l-2.739-13.12h0Zm-33.579-.01h-5.458l-0.046.27c3.756,0.95,6.831,3,8.225,6.87l-1.186-6.03a1.426,1.426,0,0,0-1.535-1.11h0Z" transform="translate(-755.781 -2263)"/>
</svg>
